<?xml version="1.0" encoding="UTF-8" standalone="no"?>
<!-- Created with Inkscape (http://www.inkscape.org/) -->

<svg
   width="135mm"
   height="50mm"
   viewBox="0 0 135 50"
   version="1.1"
   id="svg5"
   inkscape:version="1.2 (dc2aedaf03, 2022-05-15)"
   sodipodi:docname="logo.svg"
   inkscape:export-filename="betza-herokup.png"
   inkscape:export-xdpi="300"
   inkscape:export-ydpi="300"
   xmlns:inkscape="http://www.inkscape.org/namespaces/inkscape"
   xmlns:sodipodi="http://sodipodi.sourceforge.net/DTD/sodipodi-0.dtd"
   xmlns="http://www.w3.org/2000/svg"
   xmlns:svg="http://www.w3.org/2000/svg">
  <sodipodi:namedview
     id="namedview7"
     pagecolor="#ffffff"
     bordercolor="#666666"
     borderopacity="1.0"
     inkscape:pageshadow="2"
     inkscape:pageopacity="0.0"
     inkscape:pagecheckerboard="0"
     inkscape:document-units="mm"
     showgrid="false"
     inkscape:zoom="2.8284272"
     inkscape:cx="195.86857"
     inkscape:cy="113.49064"
     inkscape:window-width="2560"
     inkscape:window-height="1387"
     inkscape:window-x="1912"
     inkscape:window-y="22"
     inkscape:window-maximized="1"
     inkscape:current-layer="layer1"
     fit-margin-top="0"
     fit-margin-left="0"
     fit-margin-right="0"
     fit-margin-bottom="0"
     inkscape:showpageshadow="0"
     inkscape:deskcolor="#d1d1d1" />
  <defs
     id="defs2">
    <rect
       x="54.447221"
       y="166.17009"
       width="453.96254"
       height="98.994947"
       id="rect554" />
    <rect
       x="287.5"
       y="357"
       width="368"
       height="123.5"
       id="rect47002" />
    <inkscape:path-effect
       effect="bspline"
       id="path-effect2752"
       is_visible="true"
       lpeversion="1"
       weight="33.333333"
       steps="2"
       helper_size="0"
       apply_no_weight="true"
       apply_with_weight="true"
       only_selected="false" />
    <inkscape:path-effect
       effect="bspline"
       id="path-effect2388"
       is_visible="true"
       lpeversion="1"
       weight="33.333333"
       steps="2"
       helper_size="0"
       apply_no_weight="true"
       apply_with_weight="true"
       only_selected="false" />
  </defs>
  <g
     inkscape:label="Laag 1"
     inkscape:groupmode="layer"
     id="layer1"
     transform="translate(-22.94573,-90.730454)">
    <g
       id="g108545">
      <g
         id="g817"
         transform="matrix(1.2969584,0,0,1.2969584,-15.408211,-26.943172)">
        <path
           style="fill:#9bd02b;fill-opacity:1;stroke:#9bd02b;stroke-width:0.264583px;stroke-linecap:butt;stroke-linejoin:miter;stroke-opacity:1"
           d="m 38.821194,105.11277 c 2.167117,1.06025 5.082582,3.02468 7.218489,4.86445 2.135907,1.83977 3.492274,3.55472 4.279507,5.40223 0.787233,1.84752 1.0055,3.82751 0.982072,5.36315 -0.02343,1.53564 -0.288465,2.62697 -0.943235,3.53113 -0.65477,0.90416 -1.699329,1.62131 -3.001093,2.12801 -1.301765,0.5067 -2.860807,0.80292 -4.638119,0.72502 -1.777311,-0.0779 -3.772882,-0.53003 -5.768509,-1.16922 -1.995627,-0.6392 -3.991201,-1.46549 -5.971248,-2.48667 -1.980046,-1.02117 -3.944437,-2.23722 -5.254076,-3.12587 -1.309639,-0.88865 -1.964722,-1.45015 -2.619532,-2.01142 0,0 2.432153,-5.7062 2.432153,-5.7062 2.104748,1.5123 4.209793,3.02481 6.657575,4.36559 2.447782,1.34077 5.238465,2.51005 7.210676,3.09463 1.972211,0.58459 3.1259,0.58459 3.983284,0.3741 0.857384,-0.2105 1.418641,-0.63144 1.792779,-1.32512 0.374138,-0.69368 0.561222,-1.66028 0.483335,-2.69702 -0.07789,-1.03674 -0.420876,-2.14366 -1.005472,-3.23503 -0.584595,-1.09137 -1.410887,-2.16711 -2.525603,-3.22733 -1.114716,-1.06021 -2.517855,-2.10477 -3.952213,-3.14157 -1.434357,-1.03679 -2.90016,-2.06597 -4.365688,-3.09496 1.418756,0.15591 2.837801,0.31185 5.004918,1.3721 z"
           id="path2750" />
        <path
           style="fill:#0d895f;fill-opacity:1;stroke:#0d895f;stroke-width:0.264583px;stroke-linecap:butt;stroke-linejoin:miter;stroke-opacity:1"
           d="m 32.420971,93.575488 c 1.036848,-0.436568 3.110415,-1.309649 5.145072,-1.878701 2.034658,-0.569051 4.03023,-0.834088 5.721876,-0.834041 1.691646,4.6e-5 3.079193,0.265083 4.295281,0.748476 1.216088,0.483393 2.260643,1.18496 2.99332,2.089291 0.732676,0.904331 1.153618,2.011249 1.176922,3.702813 0.0233,1.691565 -0.350866,3.967764 -1.177186,5.939924 -0.82632,1.97215 -2.104731,3.64032 -3.843077,5.23055 -1.738346,1.59023 -3.936592,3.1025 -6.158238,4.21724 -2.221646,1.11474 -4.466667,1.8319 -5.604809,2.15169 -1.138143,0.31979 -1.169321,0.24185 -0.311858,-0.45213 0.857463,-0.69398 2.603547,-2.00354 4.349708,-3.31316 2.276246,-1.82411 4.552523,-3.64825 5.737396,-5.33193 1.307284,-1.97033 1.459702,-5.04812 0.330243,-6.413811 -1.416379,-1.467411 -2.980378,-1.443968 -4.81239,-1.08542 -1.832011,0.358548 -4.139392,1.262793 -6.275369,2.284001 -2.135976,1.02121 -4.100367,2.15931 -5.293063,2.8531 -1.192696,0.69379 -1.613718,0.94328 -2.034667,1.19273 l -3.414369,-5.799751 c 0,0 6.103825,-3.648262 6.782002,-4.053609 0.678177,-0.405347 1.356358,-0.810694 2.393206,-1.247262 z"
           id="path2386"
           sodipodi:nodetypes="zsssssssssscccssscczz" />
      </g>
      <g
         aria-label="betza"
         transform="matrix(0.32825312,0,0,0.32825312,-39.185348,-24.588677)"
         id="text47000"
         style="font-size:96px;line-height:1.25;white-space:pre;shape-inside:url(#rect47002);fill:#ffffff">
        <path
           d="m 350.40625,417.53684 q 0,12.42187 -6.89063,20.25 -6.84375,7.82812 -17.10937,7.82812 -4.40625,0 -7.73438,-0.9375 -3.32812,-0.9375 -6.32812,-2.71875 l -0.70313,2.625 h -16.17187 v -72.9375 h 16.875 v 25.78125 q 3.89062,-3.09375 7.92187,-5.01562 4.07813,-1.92188 9.375,-1.92188 9.98438,0 15.375,7.21875 5.39063,7.17188 5.39063,19.82813 z m -17.39063,0.32812 q 0,-7.03125 -2.39062,-10.82812 -2.39063,-3.79688 -8.53125,-3.79688 -2.39063,0 -4.92188,0.75 -2.53125,0.70313 -4.82812,2.0625 v 26.4375 q 1.82812,0.65625 3.46875,0.89063 1.64062,0.23437 3.9375,0.23437 6.70312,0 9.98437,-3.9375 3.28125,-3.9375 3.28125,-11.8125 z"
           style="font-weight:bold;-inkscape-font-specification:'sans-serif Bold';fill:#ffffff"
           id="path108358" />
        <path
           d="m 414.4375,421.38059 h -38.625 q 0.375,6.1875 4.6875,9.46875 4.35937,3.28125 12.79687,3.28125 5.34375,0 10.35938,-1.92188 5.01562,-1.92187 7.92187,-4.125 h 1.875 v 13.54688 q -5.71875,2.29687 -10.78125,3.32812 -5.0625,1.03125 -11.20312,1.03125 -15.84375,0 -24.28125,-7.125 -8.4375,-7.125 -8.4375,-20.29687 0,-13.03125 7.96875,-20.625 8.01562,-7.64063 21.9375,-7.64063 12.84375,0 19.3125,6.51563 6.46875,6.46875 6.46875,18.65625 z m -16.78125,-9.89063 q -0.14063,-5.29687 -2.625,-7.96875 -2.48438,-2.67187 -7.73438,-2.67187 -4.875,0 -8.01562,2.53125 -3.14063,2.53125 -3.51563,8.10937 z"
           style="font-weight:bold;-inkscape-font-specification:'sans-serif Bold';fill:#ffffff"
           id="path108360" />
        <path
           d="m 460,444.11496 q -2.71875,0.70313 -5.76563,1.07813 -3.04687,0.42187 -7.45312,0.42187 -9.84375,0 -14.67188,-3.98437 -4.78125,-3.98438 -4.78125,-13.64063 v -24.60937 h -6.9375 v -11.4375 h 6.9375 v -15.04688 h 16.875 v 15.04688 H 460 v 11.4375 h -15.79688 v 18.65625 q 0,2.76562 0.0469,4.82812 0.0469,2.0625 0.75,3.70313 0.65625,1.64062 2.29687,2.625 1.6875,0.9375 4.875,0.9375 1.3125,0 3.42188,-0.5625 2.15625,-0.5625 3,-1.03125 H 460 Z"
           style="font-weight:bold;-inkscape-font-specification:'sans-serif Bold';fill:#ffffff"
           id="path108362" />
        <path
           d="m 515.5,444.58371 h -49.45313 v -10.82812 l 27.75,-29.48438 h -26.625 v -12.32812 h 47.8125 v 10.64062 l -27.32812,29.4375 H 515.5 Z"
           style="font-weight:bold;-inkscape-font-specification:'sans-serif Bold';fill:#ffffff"
           id="path108364" />
        <path
           d="m 559.23437,430.84934 v -10.96875 q -3.42187,0.28125 -7.40625,0.79687 -3.98437,0.46875 -6.04687,1.125 -2.53125,0.79688 -3.89063,2.34375 -1.3125,1.5 -1.3125,3.98438 0,1.64062 0.28125,2.67187 0.28125,1.03125 1.40625,1.96875 1.07813,0.9375 2.57813,1.40625 1.5,0.42188 4.6875,0.42188 2.53125,0 5.10937,-1.03125 2.625,-1.03125 4.59375,-2.71875 z m 0,8.15625 q -1.35937,1.03125 -3.375,2.48437 -2.01562,1.45313 -3.79687,2.29688 -2.48438,1.125 -5.15625,1.64062 -2.67188,0.5625 -5.85938,0.5625 -7.5,0 -12.5625,-4.64062 -5.0625,-4.64063 -5.0625,-11.85938 0,-5.76562 2.57813,-9.42187 2.57812,-3.65625 7.3125,-5.76563 4.6875,-2.10937 11.625,-3 6.9375,-0.89062 14.39062,-1.3125 v -0.28125 q 0,-4.35937 -3.5625,-6 -3.5625,-1.6875 -10.5,-1.6875 -4.17187,0 -8.90625,1.5 -4.73437,1.45313 -6.79687,2.25 h -1.54688 v -12.70312 q 2.67188,-0.70313 8.67188,-1.64063 6.04687,-0.98437 12.09375,-0.98437 14.39062,0 20.76562,4.45312 6.42188,4.40625 6.42188,13.875 v 35.8125 h -16.73438 z"
           style="font-weight:bold;-inkscape-font-specification:'sans-serif Bold';fill:#ffffff"
           id="path108366" />
      </g>
      <circle
         style="fill:#9bd02b;fill-opacity:1;stroke:none;stroke-width:0.264583;stroke-opacity:1"
         id="path97834"
         cx="153.52448"
         cy="119.7584"
         r="2.0505209" />
    </g>
    <text
       xml:space="preserve"
       transform="matrix(0.37471552,0,0,0.37471552,35.896812,59.871071)"
       id="text552"
       style="font-style:normal;font-weight:normal;font-size:40px;line-height:1.25;font-family:sans-serif;white-space:pre;shape-inside:url(#rect554);display:inline;fill:#0d895f;fill-opacity:1;stroke:none"><tspan
         x="54.447266"
         y="202.66313"
         id="tspan868"><tspan
           style="font-weight:bold;font-family:Arial;-inkscape-font-specification:'Arial Bold'"
           id="tspan866">WK 2026</tspan></tspan></text>
  </g>
</svg>
