<?xml version="1.0" encoding="UTF-8" standalone="no"?>
<!-- Created with Inkscape (http://www.inkscape.org/) -->

<svg
   width="50mm"
   height="50mm"
   viewBox="0 0 50 50"
   version="1.1"
   id="svg2725"
   inkscape:export-filename="favicon.png"
   inkscape:export-xdpi="300"
   inkscape:export-ydpi="300"
   inkscape:version="1.2 (dc2aedaf03, 2022-05-15)"
   sodipodi:docname="tekening.svg"
   xmlns:inkscape="http://www.inkscape.org/namespaces/inkscape"
   xmlns:sodipodi="http://sodipodi.sourceforge.net/DTD/sodipodi-0.dtd"
   xmlns="http://www.w3.org/2000/svg"
   xmlns:svg="http://www.w3.org/2000/svg">
  <sodipodi:namedview
     id="namedview2727"
     pagecolor="#505050"
     bordercolor="#eeeeee"
     borderopacity="1"
     inkscape:showpageshadow="0"
     inkscape:pageopacity="0"
     inkscape:pagecheckerboard="0"
     inkscape:deskcolor="#505050"
     inkscape:document-units="mm"
     showgrid="false"
     inkscape:zoom="1.6819304"
     inkscape:cx="-101.07434"
     inkscape:cy="2.9727746"
     inkscape:window-width="1920"
     inkscape:window-height="1027"
     inkscape:window-x="-8"
     inkscape:window-y="22"
     inkscape:window-maximized="1"
     inkscape:current-layer="layer1" />
  <defs
     id="defs2722" />
  <g
     inkscape:label="Laag 1"
     inkscape:groupmode="layer"
     id="layer1"
     transform="translate(-33.234176,-43.049162)">
    <g
       id="g817"
       transform="matrix(1.2969584,0,0,1.2969584,8.8137749,-73.427889)">
      <path
         style="fill:#9bd02b;fill-opacity:1;stroke:#9bd02b;stroke-width:0.264583px;stroke-linecap:butt;stroke-linejoin:miter;stroke-opacity:1"
         d="m 38.821194,105.11277 c 2.167117,1.06025 5.082582,3.02468 7.218489,4.86445 2.135907,1.83977 3.492274,3.55472 4.279507,5.40223 0.787233,1.84752 1.0055,3.82751 0.982072,5.36315 -0.02343,1.53564 -0.288465,2.62697 -0.943235,3.53113 -0.65477,0.90416 -1.699329,1.62131 -3.001093,2.12801 -1.301765,0.5067 -2.860807,0.80292 -4.638119,0.72502 -1.777311,-0.0779 -3.772882,-0.53003 -5.768509,-1.16922 -1.995627,-0.6392 -3.991201,-1.46549 -5.971248,-2.48667 -1.980046,-1.02117 -3.944437,-2.23722 -5.254076,-3.12587 -1.309639,-0.88865 -1.964722,-1.45015 -2.619532,-2.01142 0,0 2.432153,-5.7062 2.432153,-5.7062 2.104748,1.5123 4.209793,3.02481 6.657575,4.36559 2.447782,1.34077 5.238465,2.51005 7.210676,3.09463 1.972211,0.58459 3.1259,0.58459 3.983284,0.3741 0.857384,-0.2105 1.418641,-0.63144 1.792779,-1.32512 0.374138,-0.69368 0.561222,-1.66028 0.483335,-2.69702 -0.07789,-1.03674 -0.420876,-2.14366 -1.005472,-3.23503 -0.584595,-1.09137 -1.410887,-2.16711 -2.525603,-3.22733 -1.114716,-1.06021 -2.517855,-2.10477 -3.952213,-3.14157 -1.434357,-1.03679 -2.90016,-2.06597 -4.365688,-3.09496 1.418756,0.15591 2.837801,0.31185 5.004918,1.3721 z"
         id="path2750" />
      <path
         style="fill:#0d895f;fill-opacity:1;stroke:#0d895f;stroke-width:0.264583px;stroke-linecap:butt;stroke-linejoin:miter;stroke-opacity:1"
         d="m 32.420971,93.575488 c 1.036848,-0.436568 3.110415,-1.309649 5.145072,-1.878701 2.034658,-0.569051 4.03023,-0.834088 5.721876,-0.834041 1.691646,4.6e-5 3.079193,0.265083 4.295281,0.748476 1.216088,0.483393 2.260643,1.18496 2.99332,2.089291 0.732676,0.904331 1.153618,2.011249 1.176922,3.702813 0.0233,1.691565 -0.350866,3.967764 -1.177186,5.939924 -0.82632,1.97215 -2.104731,3.64032 -3.843077,5.23055 -1.738346,1.59023 -3.936592,3.1025 -6.158238,4.21724 -2.221646,1.11474 -4.466667,1.8319 -5.604809,2.15169 -1.138143,0.31979 -1.169321,0.24185 -0.311858,-0.45213 0.857463,-0.69398 2.603547,-2.00354 4.349708,-3.31316 2.276246,-1.82411 4.552523,-3.64825 5.737396,-5.33193 1.307284,-1.97033 1.459702,-5.04812 0.330243,-6.413811 -1.416379,-1.467411 -2.980378,-1.443968 -4.81239,-1.08542 -1.832011,0.358548 -4.139392,1.262793 -6.275369,2.284001 -2.135976,1.02121 -4.100367,2.15931 -5.293063,2.8531 -1.192696,0.69379 -1.613718,0.94328 -2.034667,1.19273 l -3.414369,-5.799751 c 0,0 6.103825,-3.648262 6.782002,-4.053609 0.678177,-0.405347 1.356358,-0.810694 2.393206,-1.247262 z"
         id="path2386"
         sodipodi:nodetypes="zsssssssssscccssscczz" />
    </g>
  </g>
</svg>
